<svg viewBox="0 0 539 366" xmlns="http://www.w3.org/2000/svg" xml:space="preserve" style="fill-rule:evenodd;clip-rule:evenodd;stroke-linecap:round"><path d="M308 6c0-3.311-2.689-6-6-6H6C2.689 0 0 2.689 0 6v335c0 3.311 2.689 6 6 6h296c3.311 0 6-2.689 6-6V6Z" style="fill:#fff" transform="translate(124 11)"/><path d="M6 0h296c3.292 0 6 2.708 6 6v26H0V6c0-3.292 2.708-6 6-6Z" style="fill:#0092cb;fill-opacity:.4;fill-rule:nonzero" transform="translate(124 11)"/><path d="M0 0h62v315H6c-3.292 0-6-2.708-6-6V0Z" style="fill:#0092cb;fill-opacity:.12;fill-rule:nonzero" transform="translate(124 43)"/><path style="fill:#b3bdc0" d="M0 0h131v9H0z" transform="translate(254 74)"/><path style="fill:#b3bdc0" d="M0 0h88v8H0z" transform="translate(254 93)"/><path style="fill:#b3bdc0" d="M0 0h88v9H0z" transform="translate(254 111)"/><path style="fill:#99d3ea;fill-opacity:.54" d="M0 0h159v12H0z" transform="translate(254 145)"/><path style="fill:#99d3ea;fill-opacity:.54" d="M0 0h159v12H0z" transform="translate(254 271)"/><path d="M0 0h159" style="fill:none;fill-rule:nonzero;stroke:#b3bdc0;stroke-width:2px" transform="translate(254.5 213.5)"/><circle cx="8" cy="8" r="8" style="fill:#d2d8de" transform="translate(259 206)"/><circle cx="8" cy="8" r="8" style="fill:#d2d8de" transform="translate(367 206)"/><circle cx="8" cy="8" r="8" style="fill:#d2d8de" transform="translate(313 206)"/><circle cx="8" cy="8" r="8" style="fill:#d2d8de" transform="translate(286 206)"/><circle cx="8" cy="8" r="8" style="fill:#d2d8de" transform="translate(394 206)"/><circle cx="8" cy="8" r="8" style="fill:#d2d8de" transform="translate(340 206)"/><path d="M0 0h58" style="fill:none;fill-rule:nonzero;stroke:#b3bdc0;stroke-width:1px" transform="translate(261.5 193.5)"/><path d="M0 0h58" style="fill:none;fill-rule:nonzero;stroke:#b3bdc0;stroke-width:1px" transform="translate(261.5 187.5)"/><path d="M0 0h58" style="fill:none;fill-rule:nonzero;stroke:#b3bdc0;stroke-width:1px" transform="translate(261.5 175.5)"/><path d="M0 0h58" style="fill:none;fill-rule:nonzero;stroke:#b3bdc0;stroke-width:1px" transform="translate(261.5 181.5)"/><path d="M0 0h58" style="fill:none;fill-rule:nonzero;stroke:#b3bdc0;stroke-width:1px" transform="translate(261.5 169.5)"/><path d="M0 0h58" style="fill:none;fill-rule:nonzero;stroke:#b3bdc0;stroke-width:1px" transform="translate(261.5 258.5)"/><path d="M0 0h58" style="fill:none;fill-rule:nonzero;stroke:#b3bdc0;stroke-width:1px" transform="translate(261.5 252.5)"/><path d="M0 0h58" style="fill:none;fill-rule:nonzero;stroke:#b3bdc0;stroke-width:1px" transform="translate(261.5 240.5)"/><path d="M0 0h58" style="fill:none;fill-rule:nonzero;stroke:#b3bdc0;stroke-width:1px" transform="translate(261.5 246.5)"/><path d="M0 0h58" style="fill:none;fill-rule:nonzero;stroke:#b3bdc0;stroke-width:1px" transform="translate(261.5 234.5)"/><path d="M0 0h58" style="fill:none;fill-rule:nonzero;stroke:#b3bdc0;stroke-width:1px" transform="translate(345 193.5)"/><path d="M0 0h58" style="fill:none;fill-rule:nonzero;stroke:#b3bdc0;stroke-width:1px" transform="translate(345 187.5)"/><path d="M0 0h58" style="fill:none;fill-rule:nonzero;stroke:#b3bdc0;stroke-width:1px" transform="translate(345 175.5)"/><path d="M0 0h58" style="fill:none;fill-rule:nonzero;stroke:#b3bdc0;stroke-width:1px" transform="translate(345 181.5)"/><path d="M0 0h58" style="fill:none;fill-rule:nonzero;stroke:#b3bdc0;stroke-width:1px" transform="translate(345 169.5)"/><path d="M0 0h58" style="fill:none;fill-rule:nonzero;stroke:#b3bdc0;stroke-width:1px" transform="translate(345 258.5)"/><path d="M0 0h58" style="fill:none;fill-rule:nonzero;stroke:#b3bdc0;stroke-width:1px" transform="translate(345 252.5)"/><path d="M0 0h58" style="fill:none;fill-rule:nonzero;stroke:#b3bdc0;stroke-width:1px" transform="translate(345 240.5)"/><path d="M0 0h58" style="fill:none;fill-rule:nonzero;stroke:#b3bdc0;stroke-width:1px" transform="translate(345 246.5)"/><path d="M0 0h58" style="fill:none;fill-rule:nonzero;stroke:#b3bdc0;stroke-width:1px" transform="translate(345 234.5)"/><path d="M0 0h75" style="fill:none;fill-rule:nonzero;stroke:#b3bdc0;stroke-width:1px" transform="translate(334 337)"/><path d="M0 0h75" style="fill:none;fill-rule:nonzero;stroke:#b3bdc0;stroke-width:1px" transform="translate(334 331)"/><path d="M0 0h75" style="fill:none;fill-rule:nonzero;stroke:#b3bdc0;stroke-width:1px" transform="translate(334 343)"/><path d="M0 0h75" style="fill:none;fill-rule:nonzero;stroke:#b3bdc0;stroke-width:1px" transform="translate(334 319)"/><path d="M0 0h75" style="fill:none;fill-rule:nonzero;stroke:#b3bdc0;stroke-width:1px" transform="translate(334 325)"/><path d="M0 0h75" style="fill:none;fill-rule:nonzero;stroke:#b3bdc0;stroke-width:1px" transform="translate(334 313)"/><g transform="translate(257 293)"><circle cx="12" cy="12" r="12" style="fill:none"/><circle cx="12" cy="12" r="11" style="fill:none;stroke:#d2d8de;stroke-width:2px;stroke-linecap:butt"/></g><g transform="translate(257 325)"><circle cx="12" cy="12" r="12" style="fill:none"/><circle cx="12" cy="12" r="11" style="fill:none;stroke:#d2d8de;stroke-width:2px;stroke-linecap:butt"/></g><g transform="translate(289 293)"><circle cx="12" cy="12" r="12" style="fill:none"/><circle cx="12" cy="12" r="11" style="fill:none;stroke:#d2d8de;stroke-width:2px;stroke-linecap:butt"/></g><g transform="translate(289 325)"><circle cx="12" cy="12" r="12" style="fill:none"/><circle cx="12" cy="12" r="11" style="fill:none;stroke:#d2d8de;stroke-width:2px;stroke-linecap:butt"/></g><path style="fill:#b3bdc0" d="M0 0h75v9H0z" transform="translate(334 296)"/><path d="M-6886-480.131c-1.76-.045-11.04 1.814-10.94 11.247.11 9.433 8.03 10.835 10.94 10.95" style="fill:none;fill-rule:nonzero;stroke:#71b8d6;stroke-width:3px" transform="translate(7155 774)"/><path d="m10.5 0 2.479 6.875H21l-6.489 4.249L16.989 18 10.5 13.751 4.011 18l2.479-6.875L0 6.875h8.021L10.5 0Z" style="fill:#fff;fill-rule:nonzero" transform="translate(267.5 18)"/><path d="m10.5 0 2.479 6.875H21l-6.489 4.249L16.989 18 10.5 13.751 4.011 18l2.479-6.875L0 6.875h8.021L10.5 0Z" style="fill:#fff;fill-rule:nonzero" transform="translate(321.5 18)"/><path d="m10.5 0 2.479 6.875H21l-6.489 4.249L16.989 18 10.5 13.751 4.011 18l2.479-6.875L0 6.875h8.021L10.5 0Z" style="fill:#fff;fill-rule:nonzero" transform="translate(213.5 18)"/><path d="m10.5 0 2.479 6.875H21l-6.489 4.249L16.989 18 10.5 13.751 4.011 18l2.479-6.875L0 6.875h8.021L10.5 0Z" style="fill:#fff;fill-rule:nonzero" transform="translate(294.5 18)"/><path d="m10.5 0 2.479 6.875H21l-6.489 4.249L16.989 18 10.5 13.751 4.011 18l2.479-6.875L0 6.875h8.021L10.5 0Z" style="fill:#fff;fill-rule:nonzero" transform="translate(240.5 18)"/><path d="M48.052 84.3c-3.271 2.089-6.924 5.476-8.655 8.951-3.135 6.292-25.106 23.2-25.963 27.3-1.976 17.492 17.369 17.266 25.2 7.908 4.053-4.842 12.987-22.982 12.987-22.982L48.052 84.3Z" style="fill:#769eb2;fill-rule:nonzero" transform="translate(108.331 50.139)"/><path d="M22.426 111.843S36.948 88.463 39.8 85.191c4.36-5 11.941-7.005 11.941-7.005l1.633 30.657c.1-.424-15.009 18.886-15.009 18.886s-14.111-10.485-15.937-15.886" style="fill:#769eb2;fill-rule:nonzero" transform="translate(109.068 49.646)"/><path d="M32.13 126.132c-.041-.031.456-.6 1.026-1.669.331-.624.603-1.276.813-1.95a11.74 11.74 0 0 0 .419-5.117 11.336 11.336 0 0 0-.484-2.056c-.388-1.143-.786-1.789-.74-1.813.115.135.213.284.292.443.11.176.207.361.29.551.123.247.23.501.323.761.253.673.436 1.37.546 2.081a11.25 11.25 0 0 1-.428 5.219 10.536 10.536 0 0 1-.876 1.965 7.175 7.175 0 0 1-.443.7 4.16 4.16 0 0 1-.376.5 2.146 2.146 0 0 1-.36.39" style="fill-rule:nonzero" transform="translate(109.851 52.499)"/><path d="m43.194 58.359.42-34.443C44 15.352 39.332 7.99 30.761 7.844l-.793.033c-7.937.327-14.371 6.773-14.684 14.71-.291 7.425-.517 15.633-.3 19.6.442 8.215 8.715 9.154 8.715 9.154.018 0 .051 5 .047 7.415L21.809 64.4l6.763-1.647 14.622-4.394Z" style="fill:#ffc09d;fill-rule:nonzero" transform="translate(150.747 65.099)"/><path d="M26.8 65.445a19.864 19.864 0 0 0 10.571-3.606c3.106-2.188-2.319 6.286-10.551 5.885l-.02-2.279Z" style="fill:#ff9b6c;fill-rule:nonzero" transform="translate(147.636 50.995)"/><path d="m22.375 85.561-5.532 30.828c-1.481 2.698-.673 6.118 1.86 7.867.021.014 3.341 2.675 3.363 2.688 5.506 3.481 12.12-4.153 13.33-10.554l-4.531-23.448-.976-7.38-7.514-.001Z" style="fill:#ffc09d;fill-rule:nonzero" transform="translate(106.201 52.713)"/><path d="M35.794 76.57c.674.161 1.336.37 1.98.627.663.203 1.315.441 1.953.713a9.307 9.307 0 0 1-2-.549 11.364 11.364 0 0 1-1.929-.791" style="fill:#ff9b6c;fill-rule:nonzero" transform="translate(105.812 52.93)"/><path d="m15.683 185.47.6 16.033s-16.094 6-16.27 8.973l31.129-.056.088-25.02-15.547.07Z" style="fill:#455a64;fill-rule:nonzero" transform="translate(147.711 147.538)"/><path d="M34.747 205.461c.617.187.999.816.881 1.45a1.227 1.227 0 0 1-1.429.886 1.346 1.346 0 0 1-.925-1.54 1.274 1.274 0 0 1 1.588-.757" style="fill:#e0e0e0;fill-rule:nonzero" transform="translate(138.875 142.215)"/><path d="m31.142 218.576-.09-2.523-29.813 1s-1.385.605-1.226 1.582l31.129-.059Z" style="fill:#263238;fill-rule:nonzero" transform="translate(147.716 139.383)"/><path d="M21.5 207.075c.005.152.766.219 1.514.707.762.468 1.149 1.126 1.288 1.065.14-.029-.088-.938-1.006-1.512-.918-.574-1.83-.4-1.8-.26" style="fill:#fff;fill-rule:nonzero" transform="translate(141.997 141.809)"/><path d="M17.053 208.952c-.034.148.624.4 1.142 1.047.536.627.667 1.322.819 1.314.142.024.246-.867-.412-1.652-.658-.785-1.546-.854-1.549-.709" style="fill:#fff;fill-rule:nonzero" transform="translate(143.179 141.289)"/><path d="M14.093 213.353c.138.032.349-.728-.043-1.56-.392-.832-1.1-1.162-1.168-1.035-.086.125.377.571.688 1.259.327.68.372 1.321.523 1.336" style="fill:#fff;fill-rule:nonzero" transform="translate(144.291 140.798)"/><path d="M21.86 201.928c.064.139.761-.073 1.621-.015.86.039 1.53.327 1.608.2.088-.11-.566-.672-1.579-.724-1.013-.052-1.725.425-1.65.544" style="fill:#fff;fill-rule:nonzero" transform="translate(141.901 143.287)"/><path d="m71.182 186.849.865 19.392-3.739 15.535a2.016 2.016 0 0 0-.055.464c0 1.091.898 1.989 1.989 1.989a1.99 1.99 0 0 0 1.402-.578c2.9-2.9 13.226-13.786 13.27-14.823.07-1.647.548-20.751.548-20.751l-14.28-1.228Z" style="fill:#455a64;fill-rule:nonzero" transform="translate(129.557 147.153)"/><path d="m70.509 231.61 15.079-16.918.018.822a3.136 3.136 0 0 1-.668 1.956c-1.2 1.474-4.605 5.474-12.635 13.589a1.988 1.988 0 0 1-1.794.551" style="fill:#263238;fill-rule:nonzero" transform="translate(128.957 139.745)"/><path d="M85.272 206.207a1.204 1.204 0 0 0-.3 1.578 1.16 1.16 0 0 0 1.562.307c.51-.397.641-1.123.3-1.673a1.205 1.205 0 0 0-1.66-.138" style="fill:#fff;fill-rule:nonzero" transform="translate(125.155 142.056)" opacity=".6"/><path d="M74.86 225.276a6.056 6.056 0 0 0-1.734-1.472 6.089 6.089 0 0 0-2.244-.379c-.018-.047.225-.2.677-.277a3.174 3.174 0 0 1 3.077 1.432c.235.393.272.68.224.7" style="fill:#fff;fill-rule:nonzero" transform="translate(128.858 137.504)"/><path d="M73.175 229.16a16.13 16.13 0 0 0-1.737-.8 16.145 16.145 0 0 0-1.9-.2 2.207 2.207 0 0 1 2.014-.208c1.149.31 1.724 1.154 1.623 1.208" style="fill:#fff;fill-rule:nonzero" transform="translate(129.216 136.248)"/><path d="M77.718 220.653a19.72 19.72 0 0 0-2.6-1.411 19.964 19.964 0 0 0-2.893-.608 5.445 5.445 0 0 1 5.491 2.02" style="fill:#fff;fill-rule:nonzero" transform="translate(128.499 138.74)"/><path d="M78.185 213.109c-.049.117-1.131-.308-2.527-.327-1.4-.039-2.495.339-2.539.219a4.942 4.942 0 0 1 5.066.108" style="fill:#fff;fill-rule:nonzero" transform="translate(128.263 140.367)"/><path d="M77.994 205.313a9.748 9.748 0 0 0-2.622-.411 9.717 9.717 0 0 0-2.559.7c-.033-.04.174-.288.616-.556a4.34 4.34 0 0 1 3.891-.219c.469.217.7.44.674.484" style="fill:#fff;fill-rule:nonzero" transform="translate(128.345 142.464)"/><path d="M75.186 202.186a1.67 1.67 0 0 1-.043-.734 5.111 5.111 0 0 1 .542-1.935c.186-.461.519-.848.947-1.1a.803.803 0 0 1 .9.159c.212.24.328.55.326.87a2.82 2.82 0 0 1-2.407 2.653 3.265 3.265 0 0 1-3.239-1.635 1.134 1.134 0 0 1-.074-.94.786.786 0 0 1 .811-.433c.479.096.925.315 1.293.637.536.409.996.91 1.357 1.479.151.196.257.423.313.664a9.067 9.067 0 0 0-1.847-1.9 2.593 2.593 0 0 0-1.141-.528.42.42 0 0 0-.444.233.779.779 0 0 0 .085.614 2.915 2.915 0 0 0 2.824 1.386 2.448 2.448 0 0 0 2.076-2.224.949.949 0 0 0-.2-.617.434.434 0 0 0-.5-.095c-.36.215-.646.535-.818.917a7.523 7.523 0 0 0-.765 2.527" style="fill:#fff;fill-rule:nonzero" transform="translate(128.541 144.095)"/><path d="M9.764 2.741a38.159 38.159 0 0 0-4.683 19.445c.148 4.318 9.623 124 9.623 124l19.61.832-.767-112.14 1.591.417s8.68 48.183 9.226 55.949c.49 6.979 7.378 57.824 7.378 57.824l17.858-.491-2.831-65.533-3.948-64.329L59.347.512 9.764 2.741Z" style="fill:#263238;fill-rule:nonzero" transform="translate(146.375 196.9)"/><path d="M45.294 26.33a3.75 3.75 0 0 1-.837.426 9.452 9.452 0 0 1-2.465.747 5.111 5.111 0 0 1-1.808-.064 3.723 3.723 0 0 1-1.851-.987 4.498 4.498 0 0 1-1.06-2.052c-.2-.771-.3-1.569-.425-2.381a113.163 113.163 0 0 1-.943-8.375 63.239 63.239 0 0 1-.142-2.55 4.095 4.095 0 0 1 .015-.939c.084.302.133.613.146.927l.274 2.535c.23 2.14.575 5.093 1.061 8.34.249 1.605.4 3.236 1.35 4.228a4.074 4.074 0 0 0 3.348 1.025 11.088 11.088 0 0 0 2.44-.606c.289-.124.591-.216.9-.276" style="fill:#455a64;fill-rule:nonzero" transform="translate(138.204 194.163)"/><path d="M41.049 11.135c-.006-.018.131-.1.408-.1.396.007.778.148 1.083.4.48.371.761.944.762 1.55a1.954 1.954 0 0 1-1.933 1.726 1.946 1.946 0 0 1-1.43-.626 1.963 1.963 0 0 1-.3-1.7 1.76 1.76 0 0 1 .636-.962c.227-.159.383-.177.39-.159a2.204 2.204 0 0 0-.74 1.188c-.103.487.012.996.314 1.392a1.59 1.59 0 0 0 2.683-.879 1.72 1.72 0 0 0-.57-1.308 2.217 2.217 0 0 0-1.3-.52" style="fill:#455a64;fill-rule:nonzero" transform="translate(137.19 193.93)"/><path d="M78.057 21.414a2.118 2.118 0 0 1-.672.076c-.614.026-1.229.007-1.84-.057a17.826 17.826 0 0 1-10.814-5.1 12.662 12.662 0 0 1-1.213-1.384 2.142 2.142 0 0 1-.368-.567c.058-.046.657.7 1.785 1.739a20.239 20.239 0 0 0 4.941 3.323 20.225 20.225 0 0 0 5.7 1.7c1.519.211 2.477.2 2.478.272" style="fill:#455a64;fill-rule:nonzero" transform="translate(130.915 193.04)"/><path d="M14.9 10.7a8.43 8.43 0 0 1-1.1 1.957 22.477 22.477 0 0 1-8.033 7.174 8.412 8.412 0 0 1-2.068.876 21.07 21.07 0 0 1 1.924-1.132 28.047 28.047 0 0 0 4.319-3.153 28.117 28.117 0 0 0 3.619-3.936c.414-.619.861-1.215 1.339-1.786" style="fill:#455a64;fill-rule:nonzero" transform="translate(146.734 194.018)"/><path d="M73.974 120.71c-.126.078-.26.142-.4.189l-1.17.472c-1.015.41-2.508.946-4.369 1.555a98.988 98.988 0 0 1-6.615 1.892c-2.517.611-5.307 1.2-8.26 1.666-2.953.466-5.792.755-8.376.944-2.585.169-4.919.241-6.878.225-1.959-.016-3.543-.064-4.635-.142l-1.258-.092a1.899 1.899 0 0 1-.437-.058c.146-.023.294-.029.441-.018l1.26.02c1.092.033 2.675.046 4.627.021 1.952-.025 4.278-.118 6.854-.305 2.573-.208 5.4-.515 8.342-.971 2.942-.456 5.724-1.041 8.236-1.631a110.14 110.14 0 0 0 6.617-1.808 125.83 125.83 0 0 0 4.4-1.438l1.193-.405a1.9 1.9 0 0 1 .425-.117" style="fill:#263238;fill-rule:nonzero" transform="translate(126.09 84.062)"/><path d="M31.315 14.38 47.5 9.058s-.083 4.355 6.213 4.493c7.252.159 13.338-6.217 13.338-6.217s15.076 4.7 18.242 7.251c3.166 2.551-7.179 55.891-7.179 55.891l-.939 15.885a11.792 11.792 0 0 1 1.555 5.328c0 2.757.1 4.6.1 4.6-19.329 5.831-38.511 10.879-56.16 5.236 0 0 .44-9.371 1.461-11.925 1.021-2.554.832-2.788.832-2.788l1.682-29.33.307-22.059 4.363-21.043Z" style="fill:#769eb2;fill-rule:nonzero" transform="translate(128.411 113.619)"/><path d="M103.412 17.11a16.492 16.492 0 0 1 6.093 9.878c1.326 6.634 4.225 45.053 4.225 45.053l-18.44-.666s-3.7-31.778-3.7-32.5c0-.722 3.994-16.521 4.235-16.883.241-.362 7.59-4.88 7.59-4.88" style="fill:#769eb2;fill-rule:nonzero" transform="translate(110.445 111.07)"/><path d="M100.711 17.613a34.99 34.99 0 0 0-3.3 2.595 34.836 34.836 0 0 0-2.681 3.234 9.02 9.02 0 0 1 2.415-3.506 9.015 9.015 0 0 1 3.569-2.323" style="fill:#263238;fill-rule:nonzero" transform="translate(109.629 110.941)"/><path d="m112.594 91.2-.016 4.589c-.013 3.4-7.4 38.957-7.4 38.957l-10.985-3.7 3.857-34.559.166-5.812 14.378.525Z" style="fill:#ffc09d;fill-rule:nonzero" transform="translate(109.767 91.891)"/><path d="M90.223 147.41s-4.391 3.313-5.353 4.621c-.962 1.308-3.342 5.976-5.118 7.335a1.342 1.342 0 0 0 2.122.91 15.143 15.143 0 0 0 4.628-4.023c.75-1.138 1.53-.47 1.575.523.045.993-.809 7.716-.809 7.716s-2.1 7.476-1.533 8.313a1.364 1.364 0 0 0 2.135.1c.286-.392 2.652-6.639 2.652-6.639l.608-3.4s-1.221 10.762-.538 11.605a1.176 1.176 0 0 0 1.889.087c.471-.429.962-5.184.962-5.184l1.106-6.351-.2 12.1s.127 1.146 1.027 1.188c.9.042 1.5-1.283 1.5-1.283l1.3-12.472s-.418 6.934.047 7.3c.622.485 1.192.325 1.4-.206a68.038 68.038 0 0 0 1.025-7.316l.572-11.872.61-5.72-11.108-.726-.499 3.394Z" style="fill:#ffc09d;fill-rule:nonzero" transform="translate(113.531 77.984)"/><path d="M51.37 10.025c.233-1.618 2.43-6.41 2.43-6.41l4.315 5.571L73.4 0l3.754 6.267L65.113 14.6l-6.085-.952-4.721-.863-2.937-2.76Z" style="fill:#769eb2;fill-rule:nonzero" transform="translate(120.931 115.531)"/><path d="M91.667 44.167c.108-.01.781 5.916 1.5 13.236s1.219 13.265 1.111 13.275c-.108.01-.78-5.914-1.5-13.237s-1.22-13.264-1.112-13.275" style="fill:#263238;fill-rule:nonzero" transform="translate(110.429 104.016)"/><path d="M114.478 88.1c-.148.032-.3.046-.451.043-.3.018-.733.027-1.3.033-1.125.009-2.753-.028-4.762-.108-2.009-.08-4.4-.206-7.048-.237-.663-.013-1.335.014-2.046-.009a4.5 4.5 0 0 1-2.134-.529 3.759 3.759 0 0 1-1.479-1.743 9.365 9.365 0 0 1-.633-2.225 8.48 8.48 0 0 1-.152-2.309c.026-.389.105-.773.237-1.14.07-.195.177-.376.316-.53.146-.159.334-.274.543-.331a4.997 4.997 0 0 1 1.11-.131l1.055-.054 2.043-.07a189.35 189.35 0 0 1 7.064-.017l4.759.082 1.294.034c.151-.004.303.008.451.038a1.84 1.84 0 0 1-.45.041l-1.295.039-4.76.043c-2.009.013-4.4.016-7.053.1l-2.035.084-1.05.058a4.856 4.856 0 0 0-1.019.118c-.6.155-.756.977-.821 1.666a8.147 8.147 0 0 0 .149 2.209c.112.733.313 1.449.6 2.132a3.385 3.385 0 0 0 1.318 1.572c1.2.688 2.674.442 3.988.507 2.664.05 5.052.211 7.057.321 2.005.11 3.628.194 4.751.233l1.292.041c.152-.005.303.007.452.036" style="fill:#263238;fill-rule:nonzero" transform="translate(109.698 95.008)"/><path d="M27.549 38.325c.022.172.026.345.013.518l-.039 1.481c-.048 1.332-.115 3.18-.2 5.444-.167 4.6-.373 10.947-.507 17.963a1025.76 1025.76 0 0 0-.172 17.969l-.012 5.448-.016 1.482c.006.173-.005.346-.033.517a2.628 2.628 0 0 1-.047-.516l-.057-1.481a293.687 293.687 0 0 1-.113-5.448c-.064-4.6-.072-10.959.061-17.981.133-7.022.384-13.372.622-17.968.119-2.3.229-4.156.32-5.44l.113-1.477a2.55 2.55 0 0 1 .067-.514" style="fill:#263238;fill-rule:nonzero" transform="translate(127.461 105.539)"/><path d="M77.043 8.482a1.56 1.56 0 0 1-.292.276c-.2.17-.495.424-.886.735a68.546 68.546 0 0 1-3.4 2.554 85.017 85.017 0 0 1-12.177 7.173l-.152.073-.092-.14a17.282 17.282 0 0 1-2.531-5.968l.367-.024a9.942 9.942 0 0 1-1.291 3.294 31.76 31.76 0 0 1-1.693 2.681l-.176.249-.1-.286-2.179-6.152-.583-1.716a3.29 3.29 0 0 1-.174-.615c.107.185.196.38.264.583l.662 1.686 2.307 6.105-.277-.037c.555-.81 1.113-1.7 1.645-2.667a9.786 9.786 0 0 0 1.226-3.158l.139-1.062.228 1.039a17.135 17.135 0 0 0 2.482 5.837l-.243-.067a94.427 94.427 0 0 0 12.2-7.044 115.017 115.017 0 0 0 3.458-2.451l.925-.68c.104-.086.217-.159.339-.217" style="fill:#263238;fill-rule:nonzero" transform="translate(120.849 113.32)"/><path d="M55.854 107.058c-.013-.072-.018-.145-.013-.218v-.639l.047-2.455.246-9.028.957-29.779L58.16 35.16l.368-9.023.12-2.453.041-.637c0-.073.01-.146.027-.217.013.072.017.144.013.217v.639l-.047 2.455-.246 9.027-.957 29.785-1.069 29.775-.368 9.024-.12 2.453-.041.637a.992.992 0 0 1-.027.217" style="fill:#263238;fill-rule:nonzero" transform="translate(119.765 109.579)"/><path d="M77.251 0C50.441 0 28.38 22.061 28.38 48.871c0 26.81 22.061 48.871 48.871 48.871 26.809 0 48.87-22.061 48.871-48.87v-.001C126.122 22.061 104.061 0 77.251 0m0 92.254c-23.799 0-43.382-19.583-43.382-43.382S53.452 5.49 77.251 5.49s43.382 19.583 43.382 43.382-19.583 43.382-43.382 43.382" style="fill:#005e81;fill-rule:nonzero" transform="translate(105.942 54.277)"/><path d="M25.521 79.057s4.141-10.605 4.736-11.157c.595-.552 6.72-5.51 6.72-5.51a3.366 3.366 0 0 1 1.879.248 17.624 17.624 0 0 1 2.644 3.478c.158.251.206.556.132.843l-.663 2.1c.418.615.631 1.347.609 2.091a5.89 5.89 0 0 1-.658 1.637c.408.754.509 1.637.28 2.463a3.382 3.382 0 0 1-1.683 1.775c-.763.361-.467 2.175-.531 2.6-.064.425-2.313 1.407-2.546 1.345-.233-.062-1.872-.738-1.872-.738s-.754 3.557-1.7 4.352a4.954 4.954 0 0 1-2.19.979l-.591 6.737-7.871-7.065 3.305-6.178Z" style="fill:#ffc09d;fill-rule:nonzero" transform="translate(106.051 53.18)"/><path d="M39.638 68.83a3.21 3.21 0 0 1-.179-1.612 1.632 1.632 0 0 1-1.332-.477c-.382.484-.9 1.153-1.279 1.638l2.79.451Z" style="fill:#005e81;fill-rule:nonzero" transform="translate(105.794 53.103)"/><path d="M35.049 68.291c.298-.043.6-.052.9-.025 1.458.059 2.9.324 4.283.787.293.082.576.198.842.345a5.972 5.972 0 0 1-.874-.228 24.454 24.454 0 0 0-2.112-.492 23.94 23.94 0 0 0-2.147-.29 6.045 6.045 0 0 1-.9-.1" style="fill:#ff9b6c;fill-rule:nonzero" transform="translate(105.825 53.076)"/><path d="M35.854 71.922c.275.007.548.045.814.113a27.824 27.824 0 0 1 3.832 1.059c.265.078.521.186.762.322a4.232 4.232 0 0 1-.8-.205c-.487-.143-1.158-.343-1.9-.549a68.64 68.64 0 0 0-1.915-.5 4.264 4.264 0 0 1-.79-.233" style="fill:#ff9b6c;fill-rule:nonzero" transform="translate(105.811 53.011)"/><path d="M997.076 719.626s-35.793-15.542-76.316-104.121c0 0-87.985-104.759-25.61-223.676 0 0 36.845-100.564 215.38-72.424 0 0 16.06 269.528-113.454 400.221Z" style="fill:#f8a07d;fill-rule:nonzero" transform="matrix(-.10223 0 0 .10223 292.721 38.999)"/><path d="m1216.96 773.404 11.91-31.167s32.87-116.013 32.87-116.033c4.11-14.592 4.36-34.114 1.7-49.11-2.88-16.312-4.72-33.354-.47-50.562 20.73-83.43-22.03-130.796-22.03-130.796-47.12-78.694-163.1-81.305-163.1-81.305-143.602 3.727-158.9 142.255-158.9 142.255-25.422 91.765 46.231 170.366 46.382 170.522 5.727 6.265 2.005 36.589 3.559 45.266 6.728 37.008 41.459 60.487 72.319 76.813 33.93 17.934 75.01 37.12 113.33 41.525 14.53 1.68 55.61.482 62.43-17.408Z" style="fill:#ffc09d;fill-rule:nonzero" transform="matrix(-.10223 0 0 .10223 292.721 38.999)"/><path d="m1188.91 598.136-39.97 12.156s52.19 7.099 55.31-7.966c0 0-5.75-30.299-12.26-59.083 0 0 2.83 53.086-3.08 54.893Z" style="fill:#ff9b6c;fill-rule:nonzero" transform="matrix(-.10223 0 0 .10223 292.721 38.999)"/><path d="M1125.15 537.133c.38 8.219-3.9 15.074-9.46 15.318-5.57.243-10.4-6.212-10.76-14.417-.36-8.229 3.86-15.074 9.43-15.322 5.57-.263 10.43 6.207 10.79 14.421Zm112.97-4.229c.41 8.224-3.83 15.069-9.4 15.352-5.58.263-10.43-6.163-10.81-14.387-.4-8.229 3.82-15.113 9.4-15.367 5.57-.263 10.42 6.178 10.81 14.402Zm-100.36-22.641c3.57 1.034 4.82-3.79 4.82-3.79 1.49-4.628.39-8.721.39-8.721-1.23-3.454-3.98-4.702-3.98-4.702-9.27-1.997-27.62-1.008-43.34 2.442-8.71 1.909-23 7.225-24.47 15.02-.43 2.324-.96 6.358 1.67 7.274 0 0 29.99-6.928 64.91-7.523Zm129.35-7.546c-10.21-.57-37.18 3.732-59.43 6.236-3.42 1.452-5.25-3.152-5.27-3.152-2.06-4.404-1.51-8.595-1.51-8.595.76-3.58 3.35-5.188 3.35-5.188 8.92-3.167 33.21-8.414 49.26-7.026 4.8.429 12.51 2.782 14.73 7.347 0 0 1.86-1.101-1.13 10.378Z" style="fill:#263238;fill-rule:nonzero" transform="matrix(-.10223 0 0 .10223 292.721 38.999)"/><path d="M1307.98 287.274c-15.28 37.505-48.72 48.735-48.72 48.735 4.05 12.624 30.67 22.11 30.67 22.11-23.62 40.287-76.02 24.151-76.02 24.151-23.55-4.312-49.87.068-72.67 6.543-33.2 9.398-89.94-5.739-109.61 29.778-3.91 7.065-19.51 56.433-.3 81.154-40.546 31.147-20.97 94.245-20.97 94.245l-9.81.546c-56.892-14.729-37.791 92.856-37.778 92.891-.449-2.466-9.908-8.483-11.788-10.281-11.123-10.66-34.565-48.925-41.922-62.425-40.024-73.403-36.26-77.14-46.994-120.467-7.337-29.583-4.165-109.743 38.897-150.021 0 0-13.381-52.798 69.945-84.744 0 0 177.72-44.614 263.91 14.109 0 0 38.44 19.23 73.16 13.676Z" style="fill:#263238;fill-rule:nonzero" transform="matrix(-.10223 0 0 .10223 292.721 38.999)"/><path d="M986.832 640.723c-5.079 4.297-11.753 6.962-20.209 7.225-22.896.721-42.867-19.795-44.628-45.822-1.744-25.963 15.347-47.639 38.226-48.365 10.828-.341 21.052 4.088 28.931 11.62 11.518 10.987 12.848 32.146 10.938 46.884-1.538 11.781-5.638 22.012-13.258 28.458Z" style="fill:#ffc09d;fill-rule:nonzero" transform="matrix(-.10223 0 0 .10223 292.721 38.999)"/><path d="M970.574 577.556c-1.978-13.602-28.986.741-24.465 8.234 2.638 4.336 7.62 7.333 11.572 10.256 5.417 4.058 8.138 7.795 9.181 14.548.151.779.389 3.147-.368 3.751-3.449 2.651-15.791-10.177-18.502-12.847-5.308-5.296-6.453-14.738-4.334-21.7 2.259-7.406 6.873-11.07 14.704-10.943 6.21.054 12.561.195 12.548 7.927-.012.18-.226 1.476-.336.774Z" style="fill:#ff9b6c;fill-rule:nonzero" transform="matrix(-.10223 0 0 .10223 292.721 38.999)"/><path d="M962.409 592.148c2.726-3.02 5.581-.76 8.64 1.233 2.811 1.861 4.483 4.628 5.321 7.834 1.919 7.026 1.386 16.57-2.39 22.948-3.048 5.164-8.429 8.482-14.466 8.599-8.336.126-11.142-7.104-11.804-14.139-.178-1.861-.534-6.334 1.266-7.571 1.922-1.325 3.496 1.671 4.884 2.943 1.932 1.69 4.693 2.221 7.163 2.333 4.774.191 9.303-2.436 12.133-6.1.478-.652.909-1.427 1.165-2.206.19 4.618.01 5.666-.599 3.137a12.024 12.024 0 0 0-1.737-3.172c-2.054-3.108-5.428-5.149-7.693-8.072-1.121-1.37-3.247-6.217-1.883-7.767Z" style="fill:#ff9b6c;fill-rule:nonzero" transform="matrix(-.10223 0 0 .10223 292.721 38.999)"/><path d="m1131.5 648.859 88.35-5.749c4.63-.234 7.12 3.128 5.45 7.508 0 0-17.19 45.15-45.82 46.928-28.67 1.758-51.26-40.955-51.26-40.955-1.95-3.722-.37-6.85 3.28-7.732Z" style="fill:#9e4441;fill-rule:nonzero" transform="matrix(-.10223 0 0 .10223 292.721 38.999)"/><path d="M1211.41 675.777c-7.8 10.724-18.62 20.946-31.93 21.769-13.4.828-25.45-8.093-34.5-17.817 15.95-19.902 47.03-21.335 66.43-3.952Z" style="fill:#d35e5a;fill-rule:nonzero" transform="matrix(-.10223 0 0 .10223 292.721 38.999)"/><path d="M1130.65 649.264c.29-.122.52-.312.85-.405l88.35-5.749c.92-.034 1.66.151 2.4.351-2.28 5.223-4.54 10.47-6.88 15.644-13.39 3.45-44.11 9.53-76.67 4.867-2.39-5.038-5.1-9.958-8.05-14.708Z" style="fill:#fff;fill-rule:nonzero" transform="matrix(-.10223 0 0 .10223 292.721 38.999)"/><path d="M1204.43 728.61c-21.34 14.582-63.47 2.967-76.47-19.586-7.69-13.344-11.74-34.703-6.23-49.324 6.21-16.643 25.09-18.622 40.31-20.541 18.82-2.412 39.5-5.632 58.41-2.158 9.55 1.768 10.01 8.828 12.19 19.98 4.08 21.072-10.04 59.166-28.21 71.629Zm-217.676-15.176c73.616 68.598 168.406 77.012 168.406 77.012 55.23 5.798 62.7-17.846 62.7-17.846 17.11-30.709 41.4-138.148 41.4-138.148-.74 3.27-23.72-8.355-26.1-9.276-17.97-6.835-38-5.004-56.76-3.576-18.32 1.433-37.22 4.205-52.95 14.436-1.83 1.194-15.97 15.177-17.26 14.996-9.79-1.281-32.75-4.775-32.75-4.775-53.15-7.858-63.08-52.267-63.08-52.267l-9.81.546-15.389 67.049s-10.594 42.645 1.593 51.849Z" style="fill:#263238;fill-rule:nonzero" transform="matrix(-.10223 0 0 .10223 292.721 38.999)"/></svg>