<svg version="1.0" xmlns="http://www.w3.org/2000/svg" width="390px" fill="none" height="88px" viewBox="0 0 3900 880" preserveAspectRatio="xMidYMid meet">
 <style>
  #layer101 {
   fill: #24292f;
  margin-top:-1px;
  }
  #layer102 {
   fill: #ffffff;
  margin-top:-1px;
  }
  @media ( prefers-color-scheme: dark) {
   #layer102 {
    fill: #0d1117
   }
   #layer101 {
    fill: #dfe2e2
   }
 }
 </style>
   <path id="layer101" stroke="none" d="M0 440 l0 -440 1950 0 1950 0 0 440 0 440 -1950 0 -1950 0 0 -440z"/>
 <g id="layer102" stroke="none">
   <path d="M0 440 l0 -440 1950 0 1950 0 0 440 0 440 -1950 0 -1950 0 0 -440z m141 401 c13 -10 47 -49 74 -86 l50 -66 50 6 c399 48 835 74 932 56 75 -14 93 -24 93 -54 0 -18 -4 -19 -57 -11 -144 22 -682 -2 -935 -42 -47 -7 -50 0 88 -174 211 -265 321 -371 379 -367 21 1 30 -3 33 -16 5 -23 -15 -47 -40 -47 -78 0 -204 126 -468 468 l-95 123 -67 -7 c-86 -8 -114 -1 -133 36 -26 50 -12 134 30 176 29 29 35 29 66 5z m1980 -155 c10 -27 23 -54 28 -59 5 -5 46 -15 92 -23 164 -29 368 -113 457 -189 44 -39 82 -106 82 -149 0 -137 -229 -220 -517 -187 -229 27 -404 108 -459 213 -35 67 8 82 50 18 100 -152 494 -232 756 -154 68 20 120 69 120 113 0 65 -130 169 -285 228 -84 32 -232 69 -241 60 -9 -8 129 -160 174 -190 45 -32 54 -47 41 -68 -7 -12 -14 -11 -44 6 -39 20 -175 159 -222 225 l-28 40 -71 0 c-83 0 -165 -10 -159 -19 2 -4 1 -12 -3 -18 -9 -14 -159 -21 -184 -9 -15 7 -18 3 -18 -18 0 -44 -30 -50 -106 -21 -37 14 -73 30 -80 36 -9 8 -11 5 -7 -10 7 -29 -21 -37 -60 -19 -23 11 -37 12 -48 5 -12 -8 -33 -2 -84 21 -37 18 -69 32 -72 32 -3 0 -2 -16 1 -35 7 -33 6 -35 -21 -35 -15 0 -59 14 -98 30 -38 17 -72 30 -76 30 -3 0 -4 -12 -1 -26 5 -25 3 -26 -24 -20 -16 4 -54 11 -84 15 -30 5 -75 14 -99 21 -24 6 -47 8 -50 3 -3 -4 -19 -15 -34 -22 -26 -14 -29 -13 -53 12 -30 32 -44 34 -44 7 0 -29 -25 -25 -39 7 -10 22 -9 29 3 41 13 13 22 14 53 4 24 -7 41 -8 47 -2 15 15 74 12 141 -6 33 -9 72 -18 87 -19 14 -2 31 -6 37 -10 6 -3 11 0 11 8 0 33 27 39 74 18 43 -19 45 -19 51 -1 9 28 114 25 177 -5 36 -17 48 -20 48 -10 0 25 20 27 49 6 36 -26 40 -26 34 -1 -8 31 23 36 73 11 54 -26 51 -25 57 -1 8 31 36 36 76 14 39 -21 91 -21 91 0 0 16 45 9 60 -9 13 -15 50 -8 66 13 13 18 85 31 177 31 37 1 67 2 67 4 0 1 -6 20 -14 41 -29 83 14 104 45 22z m1519 24 c14 -7 25 -7 38 1 24 15 71 5 142 -29 91 -45 74 -93 -20 -53 -47 20 -80 28 -67 15 3 -4 2 -15 -3 -25 -7 -12 -7 -20 0 -24 17 -11 11 -43 -9 -50 -11 -3 -32 -3 -48 1 -44 11 -173 66 -173 74 0 5 -14 13 -30 19 -28 9 -29 9 -20 -9 25 -46 2 -83 -38 -61 -16 9 -21 7 -25 -9 -3 -12 -14 -20 -25 -20 -21 0 -52 24 -52 40 0 4 -12 13 -27 18 -16 5 -36 13 -46 17 -15 6 -17 4 -11 -19 5 -23 3 -26 -20 -26 -28 0 -81 23 -103 46 -15 14 -76 34 -107 34 -14 0 -11 -6 15 -23 37 -25 47 -50 29 -72 -21 -25 -64 -17 -126 24 -46 31 -70 40 -109 41 -85 4 -105 1 -105 -15 0 -24 -26 -17 -50 13 -14 18 -23 23 -26 15 -7 -17 -63 -16 -133 1 -108 27 -119 27 -114 6 7 -27 -33 -44 -78 -33 -27 7 -35 15 -37 37 -8 68 59 82 222 46 50 -11 91 -20 93 -20 2 0 3 9 3 20 0 29 29 25 65 -9 30 -28 30 -28 101 -18 45 7 87 7 115 1 39 -8 45 -7 71 20 26 25 34 28 71 23 65 -9 145 -46 153 -71 7 -20 8 -19 17 8 8 25 12 27 41 21 17 -4 47 -10 66 -15 19 -4 40 -8 45 -10 6 -1 22 -2 38 -1 21 1 27 6 27 24 0 52 37 59 110 22 46 -23 50 -24 50 -7 0 38 48 55 90 32z m-369 -221 c6 -13 7 -25 2 -30 -12 -12 -40 -2 -47 18 -14 35 26 46 45 12z m-2191 -64 c7 -8 25 -15 41 -15 19 0 29 -5 29 -15 0 -11 -12 -15 -44 -15 -46 0 -72 19 -62 45 7 19 20 19 36 0z"/>
   <path d="M91 774 c-6 -14 -11 -40 -11 -59 0 -29 4 -36 25 -41 26 -6 95 3 95 12 0 10 -75 103 -86 108 -6 2 -17 -7 -23 -20z"/>
   <path d="M1600 546 c0 -2 7 -9 15 -16 9 -7 15 -8 15 -2 0 5 -7 12 -15 16 -8 3 -15 4 -15 2z"/>
   <path d="M1170 536 c0 -2 7 -7 16 -10 8 -3 12 -2 9 4 -6 10 -25 14 -25 6z"/>
   <path d="M3634 641 c4 -6 16 -16 28 -22 15 -8 18 -8 14 0 -4 6 -16 16 -28 22 -15 8 -18 8 -14 0z"/>
 </g>
</svg>
